<?xml version="1.0" encoding="UTF-8"?>
<svg width="126px" height="135px" viewBox="0 0 126 135" version="1.1" xmlns="http://www.w3.org/2000/svg" xmlns:xlink="http://www.w3.org/1999/xlink">
    <!-- Generator: Sketch 58 (84663) - https://sketch.com -->
    <title>compass</title>
    <desc>Created with Sketch.</desc>
    <g id="Page-1" stroke="none" stroke-width="1" fill="none" fill-rule="evenodd">
        <g id="Dashboard-Copy" transform="translate(-577.000000, -234.000000)">
            <g id="Group-6" transform="translate(221.000000, 202.000000)">
                <g id="Group" transform="translate(356.000000, 27.000000)">
                    <g id="compass">
                        <path d="M18.9437482,71.8286802 L113.198328,71.7994605" id="Line-3-Copy-2" stroke="#4AC498" opacity="0.500976562" stroke-linecap="round" stroke-linejoin="round" transform="translate(66.071038, 71.814070) rotate(10.000000) translate(-66.071038, -71.814070) "></path>
                        <path d="M18.954855,71.8415273 L113.187221,71.7866134" id="Line-3-Copy-3" stroke="#4AC498" opacity="0.500976562" stroke-linecap="round" stroke-linejoin="round" transform="translate(66.071038, 71.814070) rotate(20.000000) translate(-66.071038, -71.814070) "></path>
                        <path d="M18.9718712,71.8510619 L113.170205,71.7770788" id="Line-3-Copy-4" stroke="#4AC498" opacity="0.500976562" stroke-linecap="round" stroke-linejoin="round" transform="translate(66.071038, 71.814070) rotate(30.000000) translate(-66.071038, -71.814070) "></path>
                        <path d="M19.0149548,71.8561325 L113.127122,71.7720082" id="Line-3-Copy-6" stroke="#4AC498" opacity="0.500976562" stroke-linecap="round" stroke-linejoin="round" transform="translate(66.071038, 71.814070) rotate(50.000000) translate(-66.071038, -71.814070) "></path>
                        <path d="M19.0358253,71.8510579 L113.106251,71.7770828" id="Line-3-Copy-7" stroke="#4AC498" opacity="0.500976562" stroke-linecap="round" stroke-linejoin="round" transform="translate(66.071038, 71.814070) rotate(60.000000) translate(-66.071038, -71.814070) "></path>
                        <path d="M19.0528383,71.8415227 L113.089238,71.786618" id="Line-3-Copy-8" stroke="#4AC498" opacity="0.500976562" stroke-linecap="round" stroke-linejoin="round" transform="translate(66.071038, 71.814070) rotate(70.000000) translate(-66.071038, -71.814070) "></path>
                        <path d="M19.0639425,71.8286772 L113.078134,71.7994635" id="Line-3-Copy-9" stroke="#4AC498" opacity="0.500976562" stroke-linecap="round" stroke-linejoin="round" transform="translate(66.071038, 71.814070) rotate(80.000000) translate(-66.071038, -71.814070) "></path>
                        <path d="M19.0639425,71.7994635 L113.078134,71.8286772" id="Line-3-Copy-10" stroke="#4AC498" opacity="0.500976562" stroke-linecap="round" stroke-linejoin="round" transform="translate(66.071038, 71.814070) rotate(100.000000) translate(-66.071038, -71.814070) "></path>
                        <path d="M19.0528383,71.786618 L113.089238,71.8415227" id="Line-3-Copy-11" stroke="#4AC498" opacity="0.500976562" stroke-linecap="round" stroke-linejoin="round" transform="translate(66.071038, 71.814070) rotate(110.000000) translate(-66.071038, -71.814070) "></path>
                        <path d="M19.0358253,71.7770828 L113.106251,71.8510579" id="Line-3-Copy-12" stroke="#4AC498" opacity="0.500976562" stroke-linecap="round" stroke-linejoin="round" transform="translate(66.071038, 71.814070) rotate(120.000000) translate(-66.071038, -71.814070) "></path>
                        <path d="M19.0149548,71.7720082 L113.127122,71.8561325" id="Line-3-Copy-13" stroke="#4AC498" opacity="0.500976562" stroke-linecap="round" stroke-linejoin="round" transform="translate(66.071038, 71.814070) rotate(130.000000) translate(-66.071038, -71.814070) "></path>
                        <path d="M18.9718712,71.7770788 L113.170205,71.8510619" id="Line-3-Copy-15" stroke="#4AC498" opacity="0.500976562" stroke-linecap="round" stroke-linejoin="round" transform="translate(66.071038, 71.814070) rotate(150.000000) translate(-66.071038, -71.814070) "></path>
                        <path d="M18.954855,71.7866134 L113.187221,71.8415273" id="Line-3-Copy-16" stroke="#4AC498" opacity="0.500976562" stroke-linecap="round" stroke-linejoin="round" transform="translate(66.071038, 71.814070) rotate(160.000000) translate(-66.071038, -71.814070) "></path>
                        <path d="M18.9437482,71.7994605 L113.198328,71.8286802" id="Line-3-Copy-17" stroke="#4AC498" opacity="0.500976562" stroke-linecap="round" stroke-linejoin="round" transform="translate(66.071038, 71.814070) rotate(170.000000) translate(-66.071038, -71.814070) "></path>
                        <path d="M19.1073059,72 L112.892694,72" id="Line-3" stroke="#4AC498" stroke-linecap="round" stroke-linejoin="round"></path>
                        <path d="M18.9927438,71.8561341 L113.149333,71.7720066" id="Line-3-Copy-5" stroke="#4AC498" stroke-linecap="round" stroke-linejoin="round" transform="translate(66.071038, 71.814070) rotate(40.000000) translate(-66.071038, -71.814070) "></path>
                        <path d="M19,71.5 L113,71.5" id="Line-3-Copy" stroke="#4AC498" stroke-linecap="round" stroke-linejoin="round" transform="translate(66.000000, 71.500000) rotate(90.000000) translate(-66.000000, -71.500000) "></path>
                        <path d="M18.9927438,71.7720066 L113.149333,71.8561341" id="Line-3-Copy-14" stroke="#4AC498" stroke-linecap="round" stroke-linejoin="round" transform="translate(66.071038, 71.814070) rotate(140.000000) translate(-66.071038, -71.814070) "></path>
                        <circle id="Oval" fill="#000000" cx="66" cy="72" r="38"></circle>
                        <text id="N" font-family="OpenSans-Semibold, Open Sans" font-size="14" font-weight="500" fill="#4AC498">
                            <tspan x="61.0175781" y="15">N</tspan>
                        </text>
                        <text id="E" font-family="OpenSans-Semibold, Open Sans" font-size="14" font-weight="500" fill="#4AC498">
                            <tspan x="118.593262" y="77">E</tspan>
                        </text>
                        <text id="W" font-family="OpenSans-Semibold, Open Sans" font-size="14" font-weight="500" fill="#4AC498">
                            <tspan x="0.758789062" y="77">W</tspan>
                        </text>
                        <text id="S" font-family="OpenSans-Semibold, Open Sans" font-size="14" font-weight="500" fill="#4AC498">
                            <tspan x="62.6513672" y="139">S</tspan>
                        </text>
                    </g>
                </g>
            </g>
        </g>
    </g>
</svg>