<?xml version="1.0" encoding="UTF-8"?>
<svg width="199px" height="199px" viewBox="0 0 199 199" version="1.1" xmlns="http://www.w3.org/2000/svg" xmlns:xlink="http://www.w3.org/1999/xlink">
    <!-- Generator: Sketch 58 (84663) - https://sketch.com -->
    <title>circle</title>
    <desc>Created with Sketch.</desc>
    <g id="Page-1" stroke="none" stroke-width="1" fill="none" fill-rule="evenodd">
        <g id="Dashboard-Copy" transform="translate(-289.000000, -201.000000)">
            <g id="Group-6" transform="translate(221.000000, 202.000000)">
                <g id="Group-Copy" transform="translate(43.000000, 0.000000)">
                    <g id="circle" transform="translate(26.000000, 0.000000)">
                        <path d="M0.00676569118,98.5383701 L196.993234,98.4616299" id="Line-3-Copy-2" stroke="#4AC498" opacity="0.500976562" stroke-linecap="round" stroke-linejoin="round" transform="translate(98.500000, 98.500000) rotate(10.000000) translate(-98.500000, -98.500000) "></path>
                        <path d="M0.0262467225,98.5721123 L196.973753,98.4278877" id="Line-3-Copy-3" stroke="#4AC498" opacity="0.500976562" stroke-linecap="round" stroke-linejoin="round" transform="translate(98.500000, 98.500000) rotate(20.000000) translate(-98.500000, -98.500000) "></path>
                        <path d="M0.0560933941,98.5971566 L196.943907,98.4028434" id="Line-3-Copy-4" stroke="#4AC498" opacity="0.500976562" stroke-linecap="round" stroke-linejoin="round" transform="translate(98.500000, 98.500000) rotate(30.000000) translate(-98.500000, -98.500000) "></path>
                        <path d="M0.131667819,98.6104824 L196.868332,98.3895176" id="Line-3-Copy-6" stroke="#4AC498" opacity="0.500976562" stroke-linecap="round" stroke-linejoin="round" transform="translate(98.500000, 98.500000) rotate(50.000000) translate(-98.500000, -98.500000) "></path>
                        <path d="M0.168280182,98.5971566 L196.83172,98.4028434" id="Line-3-Copy-7" stroke="#4AC498" opacity="0.500976562" stroke-linecap="round" stroke-linejoin="round" transform="translate(98.500000, 98.500000) rotate(60.000000) translate(-98.500000, -98.500000) "></path>
                        <path d="M0.198126854,98.5721123 L196.801873,98.4278877" id="Line-3-Copy-8" stroke="#4AC498" opacity="0.500976562" stroke-linecap="round" stroke-linejoin="round" transform="translate(98.500000, 98.500000) rotate(70.000000) translate(-98.500000, -98.500000) "></path>
                        <path d="M0.217607885,98.5383701 L196.782392,98.4616299" id="Line-3-Copy-9" stroke="#4AC498" opacity="0.500976562" stroke-linecap="round" stroke-linejoin="round" transform="translate(98.500000, 98.500000) rotate(80.000000) translate(-98.500000, -98.500000) "></path>
                        <path d="M0.217607885,98.4616299 L196.782392,98.5383701" id="Line-3-Copy-10" stroke="#4AC498" opacity="0.500976562" stroke-linecap="round" stroke-linejoin="round" transform="translate(98.500000, 98.500000) rotate(100.000000) translate(-98.500000, -98.500000) "></path>
                        <path d="M0.198126854,98.4278877 L196.801873,98.5721123" id="Line-3-Copy-11" stroke="#4AC498" opacity="0.500976562" stroke-linecap="round" stroke-linejoin="round" transform="translate(98.500000, 98.500000) rotate(110.000000) translate(-98.500000, -98.500000) "></path>
                        <path d="M0.168280182,98.4028434 L196.83172,98.5971566" id="Line-3-Copy-12" stroke="#4AC498" opacity="0.500976562" stroke-linecap="round" stroke-linejoin="round" transform="translate(98.500000, 98.500000) rotate(120.000000) translate(-98.500000, -98.500000) "></path>
                        <path d="M0.131667819,98.3895176 L196.868332,98.6104824" id="Line-3-Copy-13" stroke="#4AC498" opacity="0.500976562" stroke-linecap="round" stroke-linejoin="round" transform="translate(98.500000, 98.500000) rotate(130.000000) translate(-98.500000, -98.500000) "></path>
                        <path d="M0.0560933941,98.4028434 L196.943907,98.5971566" id="Line-3-Copy-15" stroke="#4AC498" opacity="0.500976562" stroke-linecap="round" stroke-linejoin="round" transform="translate(98.500000, 98.500000) rotate(150.000000) translate(-98.500000, -98.500000) "></path>
                        <path d="M0.0262467225,98.4278877 L196.973753,98.5721123" id="Line-3-Copy-16" stroke="#4AC498" opacity="0.500976562" stroke-linecap="round" stroke-linejoin="round" transform="translate(98.500000, 98.500000) rotate(160.000000) translate(-98.500000, -98.500000) "></path>
                        <path d="M0.00676569117,98.4616299 L196.993234,98.5383701" id="Line-3-Copy-17" stroke="#4AC498" opacity="0.500976562" stroke-linecap="round" stroke-linejoin="round" transform="translate(98.500000, 98.500000) rotate(170.000000) translate(-98.500000, -98.500000) "></path>
                        <path d="M0.224885845,99 L196.775114,99" id="Line-3" stroke="#4AC498" stroke-linecap="round" stroke-linejoin="round"></path>
                        <path d="M0.0927057568,98.6104824 L196.907294,98.3895176" id="Line-3-Copy-5" stroke="#4AC498" stroke-linecap="round" stroke-linejoin="round" transform="translate(98.500000, 98.500000) rotate(40.000000) translate(-98.500000, -98.500000) "></path>
                        <path d="M0,98.5 L197,98.5" id="Line-3-Copy" stroke="#4AC498" stroke-linecap="round" stroke-linejoin="round" transform="translate(98.500000, 98.500000) rotate(90.000000) translate(-98.500000, -98.500000) "></path>
                        <path d="M0.0927057568,98.3895176 L196.907294,98.6104824" id="Line-3-Copy-14" stroke="#4AC498" stroke-linecap="round" stroke-linejoin="round" transform="translate(98.500000, 98.500000) rotate(140.000000) translate(-98.500000, -98.500000) "></path>
                        <ellipse id="Oval" fill="#000000" cx="98.5" cy="98" rx="89.5" ry="89"></ellipse>
                    </g>
                </g>
            </g>
        </g>
    </g>
</svg>