<?xml version="1.0" encoding="UTF-8"?>
<svg width="48px" height="27px" viewBox="0 0 48 27" version="1.1" xmlns="http://www.w3.org/2000/svg" xmlns:xlink="http://www.w3.org/1999/xlink">
    <!-- Generator: Sketch 58 (84663) - https://sketch.com -->
    <title>Shape</title>
    <desc>Created with Sketch.</desc>
    <g id="Page-1" stroke="none" stroke-width="1" fill="none" fill-rule="evenodd">
        <g id="Dashboard-Copy" transform="translate(-30.000000, -516.000000)" fill="#4AC498" fill-rule="nonzero">
            <g id="Group-3" transform="translate(30.000000, 516.000000)">
                <path d="M47.2,11.1176471 L45.6,11.1176471 L45.6,8.73529412 C45.6,8.29671505 45.2418278,7.94117647 44.8,7.94117647 L43.2,7.94117647 L43.2,4.76470588 L46.4,4.76470588 L46.4,3.17647059 L43.2,3.17647059 L43.2,2.38235294 C43.1960462,1.06824484 42.1238422,0.00392468956 40.8,0 L16,0 C14.6761578,0.00392468956 13.6039538,1.06824484 13.6,2.38235294 L13.6,7.94117647 L11.2,7.94117647 C10.7581722,7.94117647 10.4,8.29671505 10.4,8.73529412 L10.4,11.1176471 L7.2,11.1176471 L7.2,9.52941176 C7.2,9.0908327 6.8418278,8.73529412 6.4,8.73529412 L0.8,8.73529412 C0.3581722,8.73529412 0,9.0908327 0,9.52941176 L0,17.4705882 C0,17.9091673 0.3581722,18.2647059 0.8,18.2647059 L6.4,18.2647059 C6.8418278,18.2647059 7.2,17.9091673 7.2,17.4705882 L7.2,15.8823529 L10.4,15.8823529 L10.4,18.2647059 C10.4,18.7032849 10.7581722,19.0588235 11.2,19.0588235 L13.6,19.0588235 L13.6,24.6176471 C13.6039538,25.9317552 14.6761578,26.9960753 16,27 L40.8,27 C42.1238422,26.9960753 43.1960462,25.9317552 43.2,24.6176471 L43.2,23.8235294 L46.4,23.8235294 L46.4,22.2352941 L43.2,22.2352941 L43.2,19.0588235 L44.8,19.0588235 C45.2418278,19.0588235 45.6,18.7032849 45.6,18.2647059 L45.6,15.8823529 L47.2,15.8823529 C47.6418278,15.8823529 48,15.5268144 48,15.0882353 L48,11.9117647 C48,11.4731856 47.6418278,11.1176471 47.2,11.1176471 L47.2,11.1176471 Z M5.6,16.6764706 L1.6,16.6764706 L1.6,15.8823529 L5.6,15.8823529 L5.6,16.6764706 Z M5.6,14.2941176 L1.6,14.2941176 L1.6,12.7058824 L5.6,12.7058824 L5.6,14.2941176 Z M5.6,11.1176471 L1.6,11.1176471 L1.6,10.3235294 L5.6,10.3235294 L5.6,11.1176471 Z M10.4,14.2941176 L7.2,14.2941176 L7.2,12.7058824 L10.4,12.7058824 L10.4,14.2941176 Z M13.6,17.4705882 L12,17.4705882 L12,9.52941176 L13.6,9.52941176 L13.6,17.4705882 Z M35.2,19.0588235 L18.4,19.0588235 L18.4,7.94117647 L35.2,7.94117647 L35.2,19.0588235 Z M35.2,6.35294118 L17.6,6.35294118 C17.1581722,6.35294118 16.8,6.70847976 16.8,7.14705882 L16.8,19.8529412 C16.8,20.2915202 17.1581722,20.6470588 17.6,20.6470588 L35.2,20.6470588 L35.2,25.4117647 L16,25.4117647 C15.5581722,25.4117647 15.2,25.0562261 15.2,24.6176471 L15.2,2.38235294 C15.2,1.94377388 15.5581722,1.58823529 16,1.58823529 L35.2,1.58823529 L35.2,6.35294118 Z M41.6,24.6176471 C41.6,25.0562261 41.2418278,25.4117647 40.8,25.4117647 L36.8,25.4117647 L36.8,1.58823529 L40.8,1.58823529 C41.2418278,1.58823529 41.6,1.94377388 41.6,2.38235294 L41.6,24.6176471 Z M44,17.4705882 L43.2,17.4705882 L43.2,9.52941176 L44,9.52941176 L44,17.4705882 Z M46.4,14.2941176 L45.6,14.2941176 L45.6,12.7058824 L46.4,12.7058824 L46.4,14.2941176 Z" id="Shape" transform="translate(24.000000, 13.500000) scale(-1, 1) translate(-24.000000, -13.500000) "></path>
            </g>
        </g>
    </g>
</svg>